<svg xmlns="http://www.w3.org/2000/svg">
    <svg id="logo" fill="var(--fg)" viewBox="0 0 400 400"><path d="M168.4 87.8c-5.6 3.8-9.6 12-10 20.5-.3 6.7-1 9.7.4 1 4.3-29.9 31.7-25.8 39.7 5.8l1.8 7h7.5c9.6 0 20.3 3 32 8.9 11 5.5 20.2 8.4 31.6 10.1 6.9 1 8.6 1.6 8.6 3 0 1 .5 2.3 1.1 2.9 1.3 1.3-9.3 12.7-16.8 18.1-6.7 4.8-3.6 4.1 3.7-.8 21.1-14.3 25-24.8 10.1-26.9a114.1 114.1 0 0 1-35.5-11.1 80.2 80.2 0 0 0-32-10c-6.5-.6-6.7.8-8.5-5.1-6-20.5-21.8-31.5-33.7-23.4m-.2 28c-7 4.3-9.7 10-9.7 19.5 0 20.4 18.2 30.1 35.2 18.7 4.3-2.9 3.9-3-1.7-.7-18.1 7.5-35-9.3-26.7-26.6 6-12.3 20.9-11.4 32.9 2 7.3 7-2.4-4.7-3.2-5.5-9.8-10.9-18-13.1-26.8-7.5m-28.2 18c-31 15-53.8 37-63.7 61.4-23.7 58.7 20.5 107.6 81 89.7 18.7-5.5 38.5-16.5 80.9-44.6 45.3-30.1 63-37.4 90.7-37.5 9.8 0 12.6-.3 10-1a145 145 0 0 0-38.4.7c-19 4.3-35.7 12.2-73.7 34.9-70.7 42.2-105.9 48.3-133.2 23-32.3-30-10-87 49-125.5 12.6-8.2 12.4-8.3-2.6-1m87 4.6c-2.7 4-2.2 5 2.6 4.6 5.5-.4 7.8-3.3 4.7-5.7-3-2.2-5.4-1.9-7.3 1m34.6 31.4c-1 .5-1.9 1.2-2.7 2-2.4 3.4-16.7 4.9-29.9 3-29.7-4.3-49.4 17.3-50.6 55.3-.4 14-.2 14.1 1.7.5 5-35.8 22.6-53.4 52-52 16 .8 22-.5 28.8-6.6 4-3.6 4.2-4.2.7-2.2"/></svg>

    <svg id="header" fill="var(--fg)" viewBox="0 0 400 379"><path d="M25.862 272.852c-13 10-14 23-4 33 32 31 157 34 198 3 14-10 14-24 1-35-3-3-5-3-7-1-2 3-2 5 2 9 9 8 8 14-3 22-37 24-141 24-179 0-12-8-13-16-2-24 4-3 4-7 1-9-2-1-3 0-7 2M119.862 59.852c-41 73-59 117-59 138 3 46 57 73 97 47 21-14 32-39 26-64-15-44-36-87-61-127l-3 6"/></svg>
</svg>
